:SAMPLES-PER-SECOND 30
:FRAME-RANGE 1-1700
:FULLY-SPECIFIED
:DEGREES
744
root  -11.9477 41.6085 -37.2937 -19.8001 -35.0193 11.6111
RightUpLeg  -0.19838 3.6005 -7.07379
RightLeg  48.2557 4.31636 4.82957
RightFoot  5.74997 -0.782033 5.46252
RightToes  6.35937e-011 1.2921e-014 -6.02303e-014
Spine  15.4529 1.9004 0.333041
Spine1  -6.34372 0.0347657 5.73926
HEad  10.0988 34.4771 -18.9538
LeftShoulder1  2.33515 -9.88823 -10.6969
LeftArm  14.8946 -37.5816 -87.987
LeftForeArm  77.115 5.88321 -13.5593
LeftHand  -0.208302 11.9087 -2.44116
RightShoulder  3.57532 7.77705 26.3358
RightArm  -17.7646 28.6839 70.2612
RightForeArm  95.5223 -3.96105 2.11961
RightHand  0.835481 -9.93978 -21.4738
LeftUpLeg  -99.114 9.0511 -46.9466
LeftLeg  113.383 -3.0045 5.65985
LeftFoot  -31.074 -0.401071 -3.38215
LeftToes  -1.9349e-011 5.45182e-011 1.33515e-010
745
root  -12.4902 41.814 -36.5748 -19.2853 -33.7572 11.6903
RightUpLeg  -3.7146 5.52048 -7.3205
RightLeg  50.5024 3.84613 4.6356
RightFoot  0.381602 -0.407394 3.99118
RightToes  6.35937e-011 1.2921e-014 -6.02303e-014
Spine  16.7502 1.74606 0.0732875
Spine1  -6.31491 -0.159856 6.1038
HEad  9.54729 32.7804 -18.774
LeftShoulder1  2.40471 -10.0693 -11.0082
LeftArm  13.4417 -37.4756 -87.9382
LeftForeArm  77.1368 6.08264 -13.2011
LeftHand  -0.167453 11.9572 -1.72694
RightShoulder  3.50424 7.65883 26.0213
RightArm  -17.238 30.1796 69.9289
RightForeArm  96.145 -3.93547 2.14036
RightHand  0.893472 -10.274 -21.378
LeftUpLeg  -98.9064 8.05669 -48.0856
LeftLeg  111.034 -3.04855 6.42951
LeftFoot  -30.2775 -0.381765 -3.38206
LeftToes  -1.9349e-011 5.45182e-011 1.33515e-010
746
root  -13.0072 41.8827 -35.8718 -17.8085 -33.0532 11.7043
RightUpLeg  -6.41911 6.59461 -8.10306
RightLeg  43.4361 2.43026 2.16312
RightFoot  -6.10079 -0.178645 2.99585
RightToes  6.35937e-011 1.2921e-014 -6.02303e-014
Spine  18.0343 1.58864 0.412449
Spine1  -6.64629 -0.187816 6.38928
HEad  8.05611 31.506 -19.5021
LeftShoulder1  2.44819 -10.1696 -11.2174
LeftArm  12.5121 -37.337 -87.9943
LeftForeArm  76.6582 6.21455 -12.9464
LeftHand  -0.121305 11.9602 -0.944396
RightShoulder  3.46488 7.75815 25.349
RightArm  -16.2389 31.441 69.5182
RightForeArm  96.1731 -4.0174 2.63657
RightHand  0.920236 -10.3954 -21.4688
LeftUpLeg  -98.4432 7.57148 -49.0999
LeftLeg  108.621 -2.67305 6.28935
LeftFoot  -29.8594 -0.423016 -3.69684
LeftToes  -1.9349e-011 5.45182e-011 1.33515e-010
747
root  -13.5292 41.5627 -35.192 -16.1851 -33.3685 11.8458
RightUpLeg  -8.69947 8.09921 -8.85096
RightLeg  32.0297 0.345517 -0.0104987
RightFoot  -14.3944 -0.00190265 3.58879
RightToes  6.35937e-011 1.2921e-014 -6.02303e-014
Spine  19.3496 1.59516 1.44743
Spine1  -6.72646 0.220563 5.68739
HEad  6.01898 30.3613 -20.2908
LeftShoulder1  2.47961 -10.3213 -11.2485
LeftArm  11.9951 -37.8932 -87.8006
LeftForeArm  75.0499 6.34588 -12.7858
LeftHand  -0.10624 11.6866 -0.745673
RightShoulder  3.4346 7.94418 24.5228
RightArm  -15.2811 32.2835 69.6614
RightForeArm  96.0458 -4.10276 3.11176
RightHand  0.918345 -10.3919 -21.4423
LeftUpLeg  -98.7269 7.88377 -49.6082
LeftLeg  107.178 -1.96604 4.79667
LeftFoot  -29.7369 -0.578296 -4.67512
LeftToes  -1.9349e-011 5.45182e-011 1.33515e-010
748
root  -14.1323 40.7172 -34.4977 -14.6658 -34.0208 12.1934
RightUpLeg  -12.1983 7.765 -9.48327
RightLeg  24.2325 -1.40635 -0.912865
RightFoot  -19.6489 0.329347 6.36504
RightToes  6.35937e-011 1.2921e-014 -6.02303e-014
Spine  19.6441 1.52755 2.01639
Spine1  -5.79812 0.583255 4.5419
HEad  4.32113 30.0643 -20.4731
LeftShoulder1  2.4101 -10.1389 -10.949
LeftArm  11.7546 -38.4441 -87.6336
LeftForeArm  74.3079 6.4243 -12.6147
LeftHand  -0.102737 11.6632 -0.688615
RightShoulder  3.59018 8.59905 24.1333
RightArm  -13.998 33.1878 69.8525
RightForeArm  95.4896 -4.25229 3.85479
RightHand  0.891173 -10.3535 -21.0082
LeftUpLeg  -99.5687 8.26243 -49.2941
LeftLeg  106.649 -1.4378 3.38588
LeftFoot  -29.623 -0.60519 -4.86729
LeftToes  -1.9349e-011 5.45182e-011 1.33515e-010
749
root  -14.8955 39.4361 -33.7306 -14.2531 -34.0423 12.0802
RightUpLeg  -14.2972 4.21454 -8.80416
RightLeg  22.2506 -0.560877 -0.468726
RightFoot  -18.7451 0.416175 8.38698
RightToes  6.35937e-011 1.2921e-014 -6.02303e-014
Spine  19.9301 1.6143 1.95196
Spine1  -4.50591 0.784515 4.26698
HEad  3.76416 30.7738 -20.0859
LeftShoulder1  2.27628 -9.81144 -10.313
LeftArm  13.066 -38.8084 -88.8354
LeftForeArm  76.8137 6.30219 -12.6314
LeftHand  -0.127796 12.2856 -0.97592
RightShoulder  3.81319 9.3565 24.0909
RightArm  -14.4999 33.5144 69.8313
RightForeArm  94.9203 -4.20788 3.42763
RightHand  0.835138 -10.1575 -20.5498
LeftUpLeg  -99.2132 8.74223 -47.4813
LeftLeg  107.096 -1.72419 4.12079
LeftFoot  -29.6774 -0.560425 -4.5777
LeftToes  -1.9349e-011 5.45182e-011 1.33515e-010
750
root  -15.8551 38.193 -32.8207 -15.0733 -33.6081 10.7104
RightUpLeg  -17.0584 4.45545 -6.31396
RightLeg  30.9568 -0.298871 -0.442339
RightFoot  -5.20337 0.0669045 -1.90477
RightToes  6.35937e-011 1.2921e-014 -6.02303e-014
Spine  20.5981 2.4297 3.6431
Spine1  -3.98797 1.14899 4.3825
HEad  4.94309 31.5414 -18.4633
LeftShoulder1  2.17539 -9.73553 -9.56328
LeftArm  14.8312 -39.3099 -91.725
LeftForeArm  81.4541 6.09481 -12.574
LeftHand  -0.20678 12.9767 -1.99102
RightShoulder  3.735 9.02457 24.2762
RightArm  -16.0078 32.9607 69.9641
RightForeArm  95.1364 -4.02319 2.38243
RightHand  0.784997 -9.80407 -20.8611
LeftUpLeg  -96.7995 10.2141 -43.5818
LeftLeg  108.584 -2.46621 5.76192
LeftFoot  -29.7539 -0.372019 -3.39999
LeftToes  -1.9349e-011 5.45182e-011 1.33515e-010
751
root  -16.6509 36.2537 -32.0681 -17.7585 -31.5104 9.30029
RightUpLeg  -19.8626 2.56725 -4.99057
RightLeg  48.0732 0.00248999 -0.334637
RightFoot  -15.4041 -0.118445 -0.401476
RightToes  6.35937e-011 1.2921e-014 -6.02303e-014
Spine  23.2587 1.76247 3.21005
Spine1  -1.79907 1.07101 4.23324
HEad  4.63024 33.308 -19.1849
LeftShoulder1  2.12109 -9.76086 -9.06299
LeftArm  16.7769 -39.9366 -94.0733
LeftForeArm  86.3156 5.84724 -12.6324
LeftHand  -0.283452 13.352 -2.94113
RightShoulder  3.77781 9.10616 24.4301
RightArm  -15.407 33.4552 68.8545
RightForeArm  92.4624 -4.27061 3.11969
RightHand  0.72125 -9.3111 -21.553
LeftUpLeg  -94.3459 9.97528 -42.2965
LeftLeg  109.608 -5.18362 12.1361
LeftFoot  -28.8404 -0.0322374 -1.33731
LeftToes  -1.9349e-011 5.45182e-011 1.33515e-010
752
root  -17.642 35.6085 -31.1734 -17.2979 -26.8831 7.88361
RightUpLeg  -18.9184 -1.05828 -4.45481
RightLeg  53.3548 -0.848274 -1.62344
RightFoot  -20.6803 -0.18068 -0.498783
RightToes  6.35937e-011 1.2921e-014 -6.02303e-014
Spine  21.2757 1.05616 1.29446
Spine1  -0.375547 -0.756465 6.66241
HEad  4.28693 33.3178 -19.1923
LeftShoulder1  2.28911 -10.4059 -9.57667
LeftArm  18.9493 -40.543 -94.1744
LeftForeArm  85.2211 5.6451 -13.256
LeftHand  -0.283564 13.4405 -2.90374
RightShoulder  3.58487 8.37882 24.6835
RightArm  -15.6416 32.8519 68.1991
RightForeArm  92.0794 -4.30692 3.23137
RightHand  0.695587 -9.22409 -21.2907
LeftUpLeg  -90.8009 8.11665 -43.3756
LeftLeg  109.122 -5.7594 13.8495
LeftFoot  -28.9048 0.0155263 -1.02577
LeftToes  -1.9349e-011 5.45182e-011 1.33515e-010
753
root  -18.4293 35.3331 -30.3344 -16.1346 -24.1256 5.56024
RightUpLeg  -17.2817 -3.22963 -2.45596
RightLeg  55.1829 -1.64298 -2.96259
RightFoot  -23.8911 -0.175419 -0.123653
RightToes  6.35937e-011 1.2921e-014 -6.02303e-014
Spine  21.0915 0.424648 2.27623
Spine1  -1.63487 -1.25724 6.86103
HEad  4.69816 32.1143 -19.6497
LeftShoulder1  2.55724 -10.6725 -11.3562
LeftArm  19.9457 -39.5893 -92.8048
LeftForeArm  84.4129 5.40201 -13.6979
LeftHand  -0.263596 13.1771 -2.7368
RightShoulder  3.4171 7.88313 24.5331
RightArm  -15.2254 31.7285 67.1908
RightForeArm  91.9523 -4.44664 4.03728
RightHand  0.67394 -9.02905 -21.7111
LeftUpLeg  -90.1007 6.93963 -44.4733
LeftLeg  110.007 -5.01263 11.4956
LeftFoot  -28.465 -0.16832 -2.25542
LeftToes  -1.9349e-011 5.45182e-011 1.33515e-010
754
root  -19.0563 35.9047 -29.5936 -15.0034 -23.784 5.37714
RightUpLeg  -15.0765 -3.6926 -2.0103
RightLeg  52.2113 -1.88197 -2.98719
RightFoot  -23.8205 -0.18853 -0.248732
RightToes  6.35937e-011 1.2921e-014 -6.02303e-014
Spine  20.0558 0.569022 3.09383
Spine1  -1.98612 -0.83813 5.67246
HEad  4.49171 31.2492 -20.4454
LeftShoulder1  2.67039 -10.7204 -12.1809
LeftArm  20.1098 -39.1576 -91.3461
LeftForeArm  82.8692 5.29567 -13.9325
LeftHand  -0.215189 12.9608 -2.12016
RightShoulder  3.38535 7.90562 24.17
RightArm  -14.5108 30.9748 67.0314
RightForeArm  91.0494 -4.61567 4.80972
RightHand  0.717085 -9.19142 -22.0644
LeftUpLeg  -91.3305 7.79446 -46.192
LeftLeg  109.936 -3.65283 8.26561
LeftFoot  -28.6607 -0.325119 -3.2664
LeftToes  -1.9349e-011 5.45182e-011 1.33515e-010
755
root  -19.498 36.9273 -28.943 -14.2942 -24.7538 6.69788
RightUpLeg  -12.5292 -3.41227 -3.18333
RightLeg  46.8097 -1.26118 -1.76782
RightFoot  -21.4874 -0.167973 -0.253891
RightToes  6.35937e-011 1.2921e-014 -6.02303e-014
Spine  19.6664 0.998744 3.1695
Spine1  -2.87601 -0.203559 4.3083
HEad  4.46933 31.4636 -21.6023
LeftShoulder1  2.66114 -10.4319 -12.5499
LeftArm  18.9752 -39.007 -89.4171
LeftForeArm  80.219 5.46109 -13.9064
LeftHand  -0.191635 12.5869 -1.89726
RightShoulder  3.44378 8.16714 23.9825
RightArm  -14.5157 31.1378 68.0993
RightForeArm  92.5586 -4.49598 4.5053
RightHand  0.661772 -9.0856 -21.0513
LeftUpLeg  -93.8639 8.96866 -48.1489
LeftLeg  109.449 -3.28521 7.55654
LeftFoot  -28.8583 -0.43976 -3.98033
LeftToes  -1.9349e-011 5.45182e-011 1.33515e-010
756
root  -19.8324 38.149 -28.3142 -14.1173 -26.1945 8.57983
RightUpLeg  -10.5394 -0.949566 -4.71359
RightLeg  42.0077 -0.982488 -1.24201
RightFoot  -16.6467 -0.0367829 1.6384
RightToes  6.35937e-011 1.2921e-014 -6.02303e-014
Spine  19.4182 1.59972 3.366
Spine1  -3.60094 0.588904 3.08576
HEad  6.28861 31.853 -21.9485
LeftShoulder1  2.61366 -10.3181 -12.3438
LeftArm  17.5445 -38.9713 -87.7918
LeftForeArm  76.5584 5.74329 -13.8035
LeftHand  -0.158272 12.0824 -1.53079
RightShoulder  3.51396 8.56314 23.5507
RightArm  -14.513 31.4057 69.3033
RightForeArm  93.3015 -4.4054 4.16493
RightHand  0.687708 -9.25427 -20.918
LeftUpLeg  -96.5878 10.2579 -49.583
LeftLeg  109.045 -3.56862 8.43937
LeftFoot  -28.8661 -0.460244 -4.11159
LeftToes  -1.9349e-011 5.45182e-011 1.33515e-010
